<svg width="242" height="365" viewBox="0 0 242 365" fill="none" xmlns="http://www.w3.org/2000/svg">
<path d="M121 121.161L121 3.05176e-05L241.599 121.161L121 121.161Z" fill="#08338E"/>
<path d="M241.599 2.5246e-05L241.599 121.161L121 3.05176e-05L241.599 2.5246e-05Z" fill="#EC2028"/>
<path d="M-5.29611e-06 120L0 241.161L120.599 241.161L120.599 120L-5.29611e-06 120Z" fill="#EC2028"/>
<path d="M29.9687 150.015L29.9688 211.145L90.6338 211.145L90.6338 150.015L29.9687 150.015Z" fill="white"/>
<path d="M122.047 245H242V364.269H122.047V245Z" fill="white"/>
<path d="M181.836 331.018C167.703 329.934 156.468 318.73 155.381 304.635C154.294 318.73 143.06 329.934 128.926 331.018C143.06 332.103 154.294 343.307 155.381 357.402C156.468 343.668 167.703 332.464 181.836 331.018Z" fill="#08338E"/>
<path d="M235.109 331.018C220.976 329.934 209.742 318.73 208.655 304.635C207.567 318.73 196.333 329.934 182.2 331.018C196.333 332.103 207.567 343.307 208.655 357.402C209.742 343.668 220.976 332.464 235.109 331.018Z" fill="#08338E"/>
<path d="M181.836 278.251C167.703 277.166 156.468 265.962 155.381 251.867C154.294 265.962 143.06 277.166 128.926 278.251C143.06 279.335 154.294 290.539 155.381 304.634C156.468 290.539 167.703 279.335 181.836 278.251Z" fill="#08338E"/>
<path d="M235.109 278.251C220.976 277.166 209.742 265.962 208.655 251.867C207.567 265.962 196.333 277.166 182.2 278.251C196.333 279.335 207.567 290.539 208.655 304.634C209.742 290.539 220.976 279.335 235.109 278.251Z" fill="#08338E"/>
</svg>
