<svg width="233" height="349" viewBox="0 0 233 349" fill="none" xmlns="http://www.w3.org/2000/svg">
<g clip-path="url(#clip0_132_2035)">
<path d="M0 -2.92456C0 61.235 52.3142 113.409 117 113.409C117 49.2492 64.6858 -2.92456 0 -2.92456Z" fill="#FFCB0C"/>
<path d="M117 118.283H0V234.616H117V118.283Z" fill="white"/>
<path d="M58.6797 202.184C72.4652 201.126 83.4229 190.198 84.4833 176.45C85.5437 190.198 96.5014 201.126 110.287 202.184C96.5014 203.241 85.5437 214.17 84.4833 227.918C83.4229 214.522 72.4652 203.594 58.6797 202.184Z" fill="#08338E"/>
<path d="M6.71875 202.184C20.5042 201.126 31.462 190.198 32.5224 176.45C33.5828 190.198 44.5405 201.126 58.326 202.184C44.5405 203.241 33.5828 214.17 32.5224 227.918C31.462 214.522 20.5042 203.594 6.71875 202.184Z" fill="#08338E"/>
<path d="M58.6797 150.715C72.4652 149.657 83.4229 138.729 84.4833 124.981C85.5437 138.729 96.5014 149.657 110.287 150.715C96.5014 151.773 85.5437 162.701 84.4833 176.449C83.4229 162.701 72.4652 151.773 58.6797 150.715Z" fill="#08338E"/>
<path d="M6.71875 150.715C20.5042 149.657 31.462 138.729 32.5224 124.981C33.5828 138.729 44.5405 149.657 58.326 150.715C44.5405 151.773 33.5828 162.701 32.5224 176.449C31.462 162.701 20.5042 151.773 6.71875 150.715Z" fill="#08338E"/>
<path d="M117 118.809L234 234.832L117 234.832L117 118.809Z" fill="#EC2028"/>
</g>
<defs>
<clipPath id="clip0_132_2035">
<rect width="351" height="349" fill="white"/>
</clipPath>
</defs>
</svg>
