<svg width="230" height="354" viewBox="0 0 230 354" fill="none" xmlns="http://www.w3.org/2000/svg">
<path d="M115.474 354L232 238V122L0 354H115.474Z" fill="#EC2028"/>
<path d="M232 238L113 120H232V238Z" fill="#08338E"/>
<path d="M113 120H232V0L113 120Z" fill="#08338E"/>
<path d="M230 353C230 319.945 203.145 293.066 170.121 293.066C169.758 326.12 196.613 353 230 353Z" fill="#FFB901"/>
<path d="M109.879 233.132C109.879 266.186 136.734 293.066 169.758 293.066C169.758 259.648 142.903 233.132 109.879 233.132Z" fill="white"/>
<path d="M109.879 353C142.903 353 170.121 326.12 170.121 293.066C136.734 293.066 109.879 319.582 109.879 353Z" fill="white"/>
</svg>
