<svg width="310" height="15" viewBox="0 0 310 15" fill="none" xmlns="http://www.w3.org/2000/svg">
<path d="M2 12L13.2727 3L24.5455 12L35.8182 3L47.0909 12L58.3636 3L69.6364 12L80.9091 3L92.1818 12L103.455 3L114.727 12L126 3" stroke="#FFCB0C" stroke-width="4"/>
<path d="M115 12L126.364 3L137.727 12L149.091 3L160.455 12L171.818 3L183.182 12L194.545 3L205.909 12L217.273 3L228.636 12L240 3" stroke="#FFCB0C" stroke-width="4"/>
<path d="M183 12L194.364 3L205.727 12L217.091 3L228.455 12L239.818 3L251.182 12L262.545 3L273.909 12L285.273 3L296.636 12L308 3" stroke="#FFCB0C" stroke-width="4"/>
</svg>
