<svg width="242" height="608" viewBox="0 0 242 608" fill="none" xmlns="http://www.w3.org/2000/svg">
<path d="M121 364.161L121 243L241.599 364.161L121 364.161Z" fill="#08338E"/>
<path d="M241.599 243L241.599 364.161L121 243L241.599 243Z" fill="#EC2028"/>
<path d="M-5.29611e-06 363L0 484.161L120.599 484.161L120.599 363L-5.29611e-06 363Z" fill="#EC2028"/>
<path d="M29.9687 393.015L29.9688 454.145L90.6338 454.145L90.6338 393.015L29.9687 393.015Z" fill="white"/>
<path d="M242 118C242 183.779 188.366 237.269 122.047 237.269C122.047 171.49 175.682 118 242 118Z" fill="#FFCB0C"/>
<path d="M122 0C122 65.7787 175.634 119.269 241.953 119.269C241.953 53.4904 188.318 0 122 0Z" fill="#08338E"/>
<path d="M122.047 488H242V607.269H122.047V488Z" fill="white"/>
<path d="M181.836 574.018C167.703 572.934 156.468 561.73 155.381 547.635C154.294 561.73 143.06 572.934 128.926 574.018C143.06 575.103 154.294 586.307 155.381 600.402C156.468 586.668 167.703 575.464 181.836 574.018Z" fill="#08338E"/>
<path d="M235.109 574.018C220.976 572.934 209.742 561.73 208.655 547.635C207.567 561.73 196.333 572.934 182.2 574.018C196.333 575.103 207.567 586.307 208.655 600.402C209.742 586.668 220.976 575.464 235.109 574.018Z" fill="#08338E"/>
<path d="M181.836 521.251C167.703 520.166 156.468 508.962 155.381 494.867C154.294 508.962 143.06 520.166 128.926 521.251C143.06 522.335 154.294 533.539 155.381 547.634C156.468 533.539 167.703 522.335 181.836 521.251Z" fill="#08338E"/>
<path d="M235.109 521.251C220.976 520.166 209.742 508.962 208.655 494.867C207.567 508.962 196.333 520.166 182.2 521.251C196.333 522.335 207.567 533.539 208.655 547.634C209.742 533.539 220.976 522.335 235.109 521.251Z" fill="#08338E"/>
</svg>
