<svg width="120" height="250" viewBox="0 0 120 250" fill="none" xmlns="http://www.w3.org/2000/svg">
<g clip-path="url(#clip0_165_479)">
<path d="M0 -3C0 62.8141 53.6556 116.333 120 116.333C120 50.5192 66.3444 -3 0 -3Z" fill="#FFCB0C"/>
<path d="M120 121.333H0V240.667H120V121.333Z" fill="white"/>
<path d="M60.1797 207.398C74.3187 206.313 85.5573 195.103 86.6449 181C87.7326 195.103 98.9712 206.313 113.11 207.398C98.9712 208.483 87.7326 219.693 86.6449 233.796C85.5573 220.054 74.3187 208.844 60.1797 207.398Z" fill="#08338E"/>
<path d="M6.88672 207.398C21.0257 206.313 32.2644 195.103 33.352 181C34.4396 195.103 45.6783 206.313 59.8172 207.398C45.6783 208.483 34.4396 219.693 33.352 233.796C32.2644 220.054 21.0257 208.844 6.88672 207.398Z" fill="#08338E"/>
<path d="M60.1797 154.602C74.3187 153.517 85.5573 142.307 86.6449 128.204C87.7326 142.307 98.9712 153.517 113.11 154.602C98.9712 155.687 87.7326 166.897 86.6449 181C85.5573 166.897 74.3187 155.687 60.1797 154.602Z" fill="#08338E"/>
<path d="M6.88672 154.602C21.0257 153.517 32.2644 142.307 33.352 128.204C34.4396 142.307 45.6783 153.517 59.8172 154.602C45.6783 155.687 34.4396 166.897 33.352 181C32.2644 166.897 21.0257 155.687 6.88672 154.602Z" fill="#08338E"/>
</g>
<defs>
<clipPath id="clip0_165_479">
<rect width="360" height="358" fill="white"/>
</clipPath>
</defs>
</svg>
