<svg width="115" height="119" viewBox="0 0 115 119" fill="none" xmlns="http://www.w3.org/2000/svg">
<path d="M115 0H-5V119H115V0Z" fill="white"/>
<path d="M56.1992 85.5069C70.5772 84.4039 82.0059 73.0059 83.1119 58.6665C84.2179 73.0059 95.6466 84.4039 110.025 85.5069C95.6466 86.6099 84.2179 98.0079 83.1119 112.347C82.0059 98.3756 70.5772 86.9776 56.1992 85.5069Z" fill="#08338E"/>
<path d="M2.00391 85.5069C16.3819 84.4039 27.8106 73.0059 28.9166 58.6665C30.0226 73.0059 41.4512 84.4039 55.8292 85.5069C41.4512 86.6099 30.0226 98.0079 28.9166 112.347C27.8106 98.3756 16.3819 86.9776 2.00391 85.5069Z" fill="#08338E"/>
<path d="M56.1992 31.8262C70.5772 30.7232 82.0059 19.3252 83.1119 4.98584C84.2179 19.3252 95.6466 30.7232 110.025 31.8262C95.6466 32.9293 84.2179 44.3272 83.1119 58.6666C82.0059 44.3272 70.5772 32.9293 56.1992 31.8262Z" fill="#08338E"/>
<path d="M2.00391 31.8262C16.3819 30.7232 27.8106 19.3252 28.9166 4.98584C30.0226 19.3252 41.4512 30.7232 55.8292 31.8262C41.4512 32.9293 30.0226 44.3272 28.9166 58.6666C27.8106 44.3272 16.3819 32.9293 2.00391 31.8262Z" fill="#08338E"/>
</svg>
